# xmcd
#
# Track frame offsets:
#	150
#	15397
#	27017
#	37752
#	51640
#	65490
#	79900
#	95092
#	105307
#	119022
#	132432
#	148210
#
# Disc length: 2172 seconds
#
# Revision: 1
# Processed by: cddbd v1.4PL0 Copyright (c) Steve Scherf et al.
# Submitted via: audiograbber 1.82.02
#
DISCID=a5087a0c
DTITLE=Kathryn Pitt - Look Out
DYEAR=1993
DGENRE=Country
TTITLE0=Blue
TTITLE1=He Taught Me To Yodel
TTITLE2=Look Out
TTITLE3=All I Want Is You
TTITLE4=Yodel Sweet Molly
TTITLE5=Grandpa Tell A Story
TTITLE6=Heart To Heart
TTITLE7=Snowy Mountain Call
TTITLE8=Highway Of My Dreams
TTITLE9=Misty Ranges
TTITLE10=Rockin' Years
TTITLE11=Losin' My Mind
EXTD=
EXTT0=
EXTT1=
EXTT2=
EXTT3=
EXTT4=
EXTT5=
EXTT6=
EXTT7=
EXTT8=
EXTT9=
EXTT10=
EXTT11=
PLAYORDER=
